<?xml version="1.0" encoding="utf-8"?>
<!-- Generator: Adobe Illustrator 22.1.0, SVG Export Plug-In . SVG Version: 6.00 Build 0)  -->
<svg version="1.1" xmlns="http://www.w3.org/2000/svg" xmlns:xlink="http://www.w3.org/1999/xlink" x="0px" y="0px"
	 viewBox="0 0 108.2 61.1" style="enable-background:new 0 0 108.2 61.1;" xml:space="preserve">
<style type="text/css">
	.st0{fill:#FFFFFF;}
	.st1{fill:#3074F0;}
	.st2{fill:#FBAF02;}
	.st3{fill:#E63124;}
	.st4{fill:#249A41;}
	.st5{fill:#6D6E71;}
	.st6{fill:#FEFEFE;}
</style>
<g id="Layer_1">
	<g>
		<g>
			<path class="st0" d="M93.7,61.1H14.6C6.6,61.1,0,55.3,0,48.3V12.8C0,5.8,6.6,0,14.6,0h79.1c8,0,14.6,5.8,14.6,12.8v35.5
				C108.2,55.3,101.7,61.1,93.7,61.1z"/>
		</g>
		<g>
			<path class="st1" d="M27.5,23.3c1.5,0,3,0,4.5,0c0.2,0,0.4,0,0.4,0.3c0.3,2.3,0,4.5-1.1,6.5c-1.5,2.7-3.9,4.3-6.9,4.7
				c-3.9,0.6-7.3-0.6-10.1-3.5c-3.1-3.4-3.6-8.6-1.2-12.5c1.7-2.8,4.2-4.5,7.5-5.1c3.3-0.6,6.3,0.3,8.9,2.5c0.2,0.2,0.2,0.3,0,0.5
				c-0.5,0.5-1,1-1.5,1.6c-0.2,0.2-0.3,0.2-0.5,0c-4.2-3.7-11.3-1.8-12.6,4.4c-0.9,4.7,2.2,8.7,6.3,9.3c2.7,0.4,5.1-0.2,6.9-2.4
				c0.8-0.9,1.1-2,1.3-3.1c0.1-0.3-0.2-0.3-0.4-0.3c-2.1,0-4.1,0-6.2,0c-0.4,0-0.5-0.1-0.5-0.5c0-0.7,0-1.4,0-2
				c0-0.3,0.1-0.4,0.4-0.4C24.5,23.3,26,23.3,27.5,23.3z"/>
			<path class="st1" d="M76.7,21.6c0.3,0,0.2,0.1,0.2,0.4c0,2.1,0,4.2,0,6.3c0,0,0,0,0,0c0,2,0,3.9,0,5.9c0,1.1-0.2,2.2-0.6,3.2
				c-0.8,2-2.3,3.1-4.4,3.5c-2.2,0.4-4.1,0-5.8-1.5c-0.7-0.6-1.2-1.3-1.6-2.2c-0.1-0.2-0.1-0.3,0.1-0.4c0.7-0.3,1.4-0.5,2-0.8
				c0.2-0.1,0.3-0.1,0.5,0.2c0.4,0.8,1,1.5,1.9,1.8c2.3,1,4.7-0.2,5.1-2.7c0.1-0.6,0.1-1.2,0.1-1.9c0-0.1,0-0.1-0.1-0.2
				c-0.1,0-0.1,0-0.2,0.1c-1.9,2.1-5.2,1.8-7.2,0.2c-2.2-1.7-3.2-3.9-2.8-6.7c0.4-2.7,1.9-4.5,4.5-5.5c2-0.7,3.9-0.5,5.5,1
				c0.1,0,0.1,0.1,0.2,0.1c0.1,0,0.1-0.5,0.1-0.6c0-0.2-0.1-0.4,0.2-0.4H76.7z"/>
			<path class="st2" d="M55.5,34.9c-3.9,0-6.9-3-6.9-6.9c0-3.9,3-6.9,6.9-6.9c4.1,0,6.9,3.2,6.9,7C62.4,31.9,59.5,34.9,55.5,34.9z"
				/>
			<path class="st3" d="M33.6,28c0-3.9,3-6.9,6.9-6.9c4,0,6.9,3,6.9,7c0,3.8-3.1,6.8-6.9,6.7C36.5,34.9,33.6,31.9,33.6,28z"/>
			<path class="st3" d="M90.1,34.9c-4.1,0-7.1-3.4-6.7-7.6c0.2-2,0.9-3.7,2.5-4.9c3-2.3,7.1-1.5,9.1,1.8c0.3,0.5,0.6,1.1,0.8,1.7
				c0.1,0.3,0.1,0.4-0.2,0.5c-2,0.8-4,1.6-6,2.5c-0.8,0.4-1.7,0.7-2.5,1c-0.3,0.1-0.3,0.2-0.1,0.5c1.4,2.4,4.8,2.3,6.3,0.2
				c0.2-0.3,0.3-0.3,0.6-0.1c0.6,0.4,1.1,0.8,1.7,1.2c0.2,0.1,0.2,0.2,0.1,0.4C94.3,33.9,92.4,34.9,90.1,34.9z"/>
			<path class="st4" d="M82,24.3c0,3.2,0,6.5,0,9.7c0,0.3,0,0.4-0.4,0.4l-2.2,0C79,34.5,79,34.4,79,34c0-1.6,0-3.2,0-4.8
				c0-4.9,0-9.7,0-14.6c0-0.4,0.1-0.5,0.5-0.5l2.1,0c0.3,0,0.5,0.1,0.5,0.4C82,17.9,82,21.1,82,24.3z"/>
			<path class="st5" d="M21.8,47.1c-0.6,0-1,0-1.5,0c-0.2,0-0.3-0.1-0.4-0.3c-0.3-0.6-0.7-1.3-1.1-1.9c-0.2-0.3-1-0.5-1.2-0.3
				c-0.1,0.1-0.1,0.2-0.1,0.3c0,0.6,0,1.2,0,1.9c0,0.2-0.1,0.3-0.3,0.3c-1.2,0-1.2,0-1.2-1.2c0-1.8,0-3.7,0-5.5
				c0-0.3,0.1-0.4,0.4-0.4c1,0,2.1,0,3.1,0c0.9,0,1.7,0.4,2,1.3c0.3,0.9,0.3,1.7-0.4,2.5c-0.2,0.2-0.4,0.4-0.7,0.4
				c-0.3,0.1-0.3,0.2-0.1,0.4C20.9,45.5,21.3,46.3,21.8,47.1z"/>
			<path class="st5" d="M44.3,45.3c0.3-1,0.6-1.9,0.9-2.9c0.1-0.3,0.2-0.4,0.5-0.4c0.8,0,0.8,0,1.1,0.8c0.3,0.8,0.6,1.7,0.9,2.6
				c0.3-1.1,0.6-2,0.8-3c0.1-0.3,0.2-0.4,0.5-0.4c1,0,1,0,0.7,1c-0.4,1.3-0.8,2.5-1.2,3.8c-0.1,0.3-0.2,0.4-0.5,0.4
				c-1.1,0-1.1,0-1.4-1c-0.2-0.8-0.5-1.6-0.8-2.4c-0.2,0.7-0.4,1.3-0.6,1.9c-0.1,0.4-0.3,0.8-0.4,1.3c-0.1,0.3-0.2,0.3-0.5,0.3
				c-1.1,0-1.1,0-1.4-1c-0.4-1.3-0.8-2.6-1.2-4c0,0,0-0.1,0-0.1c0,0,0,0,0,0c1.3-0.1,1.3-0.1,1.7,1.1C43.8,43.9,44,44.6,44.3,45.3
				C44.2,45.3,44.2,45.3,44.3,45.3z"/>
			<path class="st5" d="M39.5,45c-0.5,0-1,0-1.5,0c-0.3,0-0.3,0.1-0.2,0.4c0.3,0.7,1,1,1.8,0.8c0.2,0,0.3-0.1,0.4-0.2
				c0.5-0.2,0.5-0.2,0.9,0.3c0.2,0.3,0.1,0.4-0.1,0.5c-1,0.5-2,0.7-3,0.2c-1-0.4-1.6-1.4-1.5-2.6c0-1.1,0.7-2,1.7-2.4
				c1-0.4,2.1-0.1,2.8,0.6c0.5,0.6,0.7,1.3,0.7,2.1c0,0.2-0.1,0.3-0.3,0.3C40.6,45,40.1,45,39.5,45z"/>
			<path class="st5" d="M25.6,45c-0.5,0-1,0-1.6,0c-0.3,0-0.3,0.1-0.2,0.3c0.3,0.7,1,1.1,1.8,0.9c0.2,0,0.4-0.2,0.6-0.2
				c0.1,0,0.3-0.3,0.4-0.1c0.2,0.2,0.4,0.5,0.5,0.8c0,0-0.1,0.1-0.2,0.2c-0.9,0.7-2.6,0.7-3.6,0.1c-1-0.7-1.3-2-0.9-3.2
				c0.4-1.2,1.6-1.9,2.8-1.8c1.2,0.1,2.1,1.1,2.2,2.3c0.1,0.8,0.1,0.8-0.7,0.8C26.4,45,26,45,25.6,45z"/>
			<path class="st5" d="M54.1,43.5c-0.4-0.3-0.8-0.5-1.3-0.6c-0.2,0-0.5,0-0.7,0.1c-0.2,0.1-0.4,0.2-0.3,0.4c0,0.2,0.2,0.3,0.4,0.3
				c0.6,0.2,1.2,0.2,1.7,0.5c0.6,0.3,0.9,0.7,1,1.4c0,0.7-0.3,1.1-0.9,1.4c-0.1,0.1-0.3,0.1-0.4,0.1c-1,0.2-2,0.1-2.9-0.4
				c-0.3-0.2-0.4-0.3-0.2-0.6c0.4-0.5,0.3-0.5,0.9-0.3c0.5,0.3,1,0.4,1.6,0.3c0.3-0.1,0.5-0.2,0.5-0.5c0-0.3-0.2-0.4-0.5-0.5
				c-0.6-0.2-1.1-0.2-1.7-0.4c-0.5-0.2-0.9-0.6-0.9-1.2c-0.1-0.6,0.2-1.1,0.7-1.4c0.3-0.2,0.6-0.3,1-0.3c0.8-0.1,1.6,0.1,2.3,0.5
				c0.2,0.1,0.3,0.2,0.1,0.5C54.3,43,54.2,43.2,54.1,43.5z"/>
			<path class="st2" d="M85.5,47.1c0.1-0.6,0.1-1.1,0.2-1.6c0.1-0.3,0-0.4-0.2-0.6c-0.4-0.4-0.7-0.7-1.1-1.2
				c0.6-0.1,1.1-0.2,1.6-0.3c0.2,0,0.3-0.1,0.4-0.3c0.3-0.5,0.5-0.9,0.8-1.5c0.3,0.5,0.5,0.9,0.8,1.4c0.1,0.2,0.3,0.4,0.6,0.4
				c0.5,0.1,1,0.2,1.6,0.3c-0.4,0.4-0.7,0.8-1.1,1.2c-0.2,0.2-0.3,0.4-0.2,0.6c0.1,0.5,0.1,1,0.2,1.6c-0.5-0.3-1-0.5-1.5-0.7
				c-0.2-0.1-0.3-0.1-0.5,0C86.5,46.6,86,46.9,85.5,47.1z"/>
			<path class="st2" d="M83.3,43.7c-0.4,0.4-0.8,0.8-1.1,1.2c-0.2,0.2-0.2,0.3-0.2,0.6c0.1,0.5,0.1,1.1,0.2,1.6
				c-0.4-0.2-0.8-0.3-1.1-0.5c-0.4-0.3-0.8-0.3-1.3,0c-0.3,0.2-0.7,0.3-1.1,0.5c0.1-0.6,0.1-1.1,0.2-1.7c0-0.2,0-0.4-0.2-0.5
				c-0.4-0.4-0.7-0.8-1.1-1.2c0.6-0.1,1.1-0.2,1.6-0.3c0.2,0,0.4-0.2,0.5-0.4c0.2-0.5,0.5-0.9,0.8-1.4c0.3,0.5,0.5,1,0.8,1.4
				c0.1,0.2,0.2,0.3,0.5,0.4C82.3,43.5,82.8,43.6,83.3,43.7z"/>
			<path class="st2" d="M70.8,43.7c0.6-0.1,1.1-0.2,1.6-0.3c0.2,0,0.4-0.1,0.5-0.3c0.2-0.5,0.5-0.9,0.8-1.4c0.3,0.5,0.5,0.9,0.8,1.4
				c0.1,0.2,0.3,0.4,0.6,0.4c0.5,0.1,1,0.2,1.6,0.3c-0.4,0.4-0.8,0.8-1.1,1.2c-0.2,0.2-0.2,0.3-0.2,0.6c0.1,0.5,0.1,1.1,0.2,1.6
				c-0.5-0.2-1-0.5-1.5-0.7c-0.2-0.1-0.4-0.1-0.6,0c-0.5,0.2-0.9,0.4-1.5,0.7c0.1-0.6,0.1-1.1,0.2-1.7c0-0.2,0-0.4-0.2-0.5
				C71.5,44.6,71.2,44.2,70.8,43.7z"/>
			<path class="st2" d="M64,43.7c0.6-0.1,1.1-0.2,1.6-0.3c0.2,0,0.3-0.1,0.4-0.3c0.3-0.5,0.5-0.9,0.8-1.5c0.3,0.5,0.5,1,0.8,1.4
				c0.1,0.2,0.2,0.3,0.5,0.3c0.5,0.1,1,0.2,1.6,0.3c-0.4,0.4-0.7,0.8-1.1,1.2c-0.2,0.2-0.3,0.4-0.2,0.6c0.1,0.5,0.1,1,0.2,1.6
				c-0.5-0.2-1-0.5-1.5-0.7c-0.2-0.1-0.3-0.1-0.5,0c-0.5,0.2-1,0.5-1.5,0.7c0.1-0.6,0.1-1.1,0.2-1.6c0.1-0.3,0-0.4-0.2-0.6
				C64.7,44.5,64.4,44.1,64,43.7z"/>
			<path class="st2" d="M61.8,47.1c-0.5-0.3-1-0.5-1.5-0.7c-0.2-0.1-0.4-0.1-0.6,0c-0.5,0.2-1,0.5-1.5,0.7c0.1-0.6,0.1-1.1,0.2-1.6
				c0-0.3,0-0.4-0.2-0.6c-0.3-0.3-0.6-0.6-0.9-1c-0.2-0.2-0.1-0.2,0.1-0.3c0.4-0.1,0.9-0.2,1.3-0.2c0.2,0,0.4-0.1,0.5-0.3
				c0.2-0.5,0.5-0.9,0.8-1.5c0.3,0.5,0.6,1,0.8,1.5c0.1,0.2,0.2,0.3,0.5,0.3c0.5,0.1,1,0.2,1.6,0.3c-0.4,0.4-0.7,0.8-1.1,1.1
				c-0.2,0.2-0.3,0.4-0.2,0.7C61.7,46,61.8,46.5,61.8,47.1z"/>
			<path class="st5" d="M27.8,42c0.5,0,1-0.1,1.4,0c0.4,0.2,0.4,0.7,0.5,1.1c0.3,0.7,0.6,1.5,0.9,2.4c0.3-0.8,0.6-1.5,0.8-2.2
				c0-0.1,0-0.1,0.1-0.2c0.5-1.3,0.5-1.3,1.9-1.2c-0.1,0.3-0.2,0.5-0.3,0.8c-0.5,1.3-1.1,2.6-1.6,4c-0.1,0.2-0.2,0.3-0.4,0.3
				c-1.1,0-1.1,0-1.6-1.1c-0.5-1.2-1-2.4-1.5-3.7C27.9,42.3,27.8,42.2,27.8,42z"/>
			<path class="st5" d="M35.3,44.6c0,0.7,0,1.5,0,2.2c0,0.2,0,0.3-0.3,0.3c-1,0-1,0-1-1c0-1.2,0-2.5,0-3.7c0-0.3,0-0.4,0.4-0.4
				c1,0,1,0,1,1C35.3,43.5,35.3,44.1,35.3,44.6z"/>
			<path class="st5" d="M35.4,40.6c0,0.4-0.4,0.8-0.8,0.8c-0.4,0-0.8-0.4-0.8-0.8c0-0.4,0.4-0.8,0.8-0.8
				C35,39.8,35.4,40.2,35.4,40.6z"/>
			<path class="st6" d="M74.3,28.2c0,1.2-0.4,2.3-1.5,3.2c-1.4,1.1-3.5,1-4.8-0.3c-1.8-1.7-1.7-5,0.3-6.5c1.9-1.6,4.7-0.8,5.6,1.4
				C74.2,26.7,74.3,27.4,74.3,28.2z"/>
			<path class="st6" d="M59.5,28c0,1.6-0.6,2.9-2,3.7c-1.6,1-3.7,0.5-4.9-1c-1.5-1.9-1.1-4.8,0.8-6.2c2-1.5,4.9-0.6,5.8,1.6
				C59.3,26.8,59.5,27.4,59.5,28z"/>
			<path class="st6" d="M36.6,28c0-1.6,0.6-2.8,2-3.7c1.7-1,3.7-0.6,5,0.9c1.4,1.8,1.2,4.6-0.5,6c-2.3,2-5.7,0.7-6.3-2.2
				C36.6,28.7,36.6,28.4,36.6,28z"/>
			<path class="st6" d="M86.3,27.8c-0.2-2.6,2.4-4.7,4.8-3.9c0.5,0.2,1,0.5,1.3,1c0.1,0.1,0.2,0.3-0.1,0.4c-0.1,0-0.3,0.1-0.4,0.2
				C90,26.3,88.2,27,86.3,27.8z"/>
			<path class="st6" d="M18.6,41.4c0.2,0,0.5,0,0.7,0c0.6,0,0.9,0.4,0.9,0.9c0,0.5-0.3,0.9-0.9,1c-0.5,0-1,0-1.5,0
				c-0.2,0-0.2-0.1-0.2-0.3c0-0.4,0-0.9,0-1.3c0-0.2,0.1-0.3,0.3-0.3C18.1,41.4,18.4,41.4,18.6,41.4C18.6,41.4,18.6,41.4,18.6,41.4z
				"/>
			<path class="st6" d="M38.9,44.1c-0.3,0-0.6,0-0.9,0c-0.2,0-0.3-0.1-0.2-0.3c0.2-0.5,0.6-0.8,1.2-0.8c0.6,0,1,0.3,1.2,0.9
				c0.1,0.2,0,0.3-0.2,0.3C39.6,44.1,39.2,44.1,38.9,44.1z"/>
			<path class="st6" d="M24.9,44.1c-0.3,0-0.7,0-1,0c-0.2,0-0.3-0.1-0.2-0.3c0.1-0.5,0.6-0.8,1.2-0.8c0.6,0,1,0.3,1.2,0.9
				c0.1,0.2,0,0.3-0.2,0.3C25.6,44.1,25.3,44.1,24.9,44.1z"/>
		</g>
	</g>
</g>
<g id="Layer_2">
</g>
</svg>
